<?xml version="1.0" encoding="UTF-8"?>
<svg xmlns:xodm="http://www.corel.com/coreldraw/odm/2003" xmlns="http://www.w3.org/2000/svg" xmlns:xlink="http://www.w3.org/1999/xlink" version="1.1" id="Layer_1" x="0px" y="0px" viewBox="0 0 2500 2500" style="enable-background:new 0 0 2500 2500;" xml:space="preserve">
<style type="text/css">
	.st0{fill-rule:evenodd;clip-rule:evenodd;}
	.st1{fill:#FFFFFF;}
</style>
<g id="Layer_x0020_1">
	<g id="_2990647510864">
		<path class="st0" d="M500,0h1500c275,0,500,225,500,500v1500c0,275-225,500-500,500H500c-275,0-500-225-500-500V500    C0,225,225,0,500,0z"></path>
		<g>
			<path class="st1" d="M840,1145c-112,0-193,79-193,187c0,109,81,187,193,187s193-79,193-187S952,1145,840,1145L840,1145z      M939,1332c0,64-42,110-99,110s-99-46-99-110c0-65,41-110,99-110S939,1267,939,1332z"></path>
			<polygon class="st1" points="486,1314 638,1153 518,1153 387,1299 387,991 295,991 295,1509 387,1509 387,1331 524,1509      647,1509    "></polygon>
			<g>
				<path class="st1" d="M1706,1197c-16-17-35-31-56-40s-44-14-68-14c-27,0-53,6-77,19c-9,5-17,11-25,18c-5,5-10,10-15,16V991h-92      v518h88v-49c12,18,29,33,48,43c22,11,46,16,70,16c24,1,48-4,70-14s41-24,57-42c15-18,27-38,35-60c8-24,12-49,12-74s-4-50-13-73      c-8-22-20-42-35-59l0,0H1706z M1563,1441c-65,0-100-60-100-110c0-51,35-112,100-112c71,0,98,64,98,110      C1661,1384,1627,1441,1563,1441L1563,1441z M1563,1441L1563,1441L1563,1441z"></path>
			</g>
			<path class="st1" d="M1867,980c-11,0-23,4-32,10c-10,7-17,16-21,27s-6,23-3,35c2,12,8,23,16,31s18,14,30,17c11,2,23,1,33-3     c11-5,20-12,26-22s10-22,10-34c0-16-6-31-17-43c-11-11-26-18-41-18H1867z"></path>
			<polygon class="st1" points="1913,1156 1820,1156 1820,1509 1913,1509    "></polygon>
			<g>
				<path class="st1" d="M1319,1147v89c-9-2-19-2-29-2c-62,0-93,51-93,90v184h-93v-353h89v54c9-18,22-33,38-45c18-13,41-20,63-19      c8,0,16,1,24,2l0,0H1319z M1319,1147L1319,1147L1319,1147z"></path>
			</g>
			<path class="st1" d="M2205,1228v-75h-89v-101h-93v101h-61v75h61v160c0,16,2,32,5,48c3,15,9,28,18,40s22,22,36,28     c15,7,35,10,59,10c11,0,21-1,32-3s32-10,32-12v-71c-15,3-30,5-45,6c-18,0-30-5-36-14c-5-8-8-22-8-37v-155H2205z"></path>
		</g>
	</g>
</g>
</svg>
